<svg width="450" height="480" viewBox="0 0 119.063 127" xmlns:xlink="http://www.w3.org/1999/xlink" xmlns="http://www.w3.org/2000/svg"><path style="display:inline;fill:#e20909;stroke:none;stroke-width:.264583px;stroke-linecap:butt;stroke-linejoin:miter;stroke-opacity:1" d="M.607.652c18.25 8.892 39.9 8.342 58.924 0v125.696C44.767 126.348.607 104.22.607 88.87z"/><path style="display:inline;fill:#0d0d54;fill-opacity:1;stroke:none;stroke-width:.265;stroke-linecap:butt;stroke-linejoin:miter;stroke-miterlimit:4;stroke-dasharray:none;stroke-opacity:1" d="M118.456.652c-18.25 8.892-39.9 8.342-58.925 0v125.696c14.764 0 58.925-22.128 58.925-37.478z"/><g transform="matrix(.0941 0 0 .09488 45.982 10.726)" style="display:inline;stroke-width:3.73357"><path style="display:inline;fill:none;stroke:#fcef3c;stroke-width:4.20027;stroke-linecap:butt;stroke-linejoin:bevel;stroke-miterlimit:4;stroke-dasharray:none;stroke-opacity:1" d="M135.66 1.339c-.735.04-1.533.253-2.465.752-3.812 2.044-10.278.491-12.054.98-2.605.717-4.826 2.679-6.407 4.578C106.204-.25 99.23 5.54 97.999 6.575c-2.946 2.476-8.06 9.835.48 20.046-2.505 4.881-5.398 9.86-4.675 16.003-4.987-1.378-10.898-1.781-16.81-1.138-1.383-1.063-3.783-2.307-5.913-1.636-3.043-4.024-8.063-12.533-19.038-7.678-1.273.563-2.32 5.244-2.217 7.978-7.615 2.605-7.555 10.265-7.426 13.633-7.509 3.56-15.21 10.369-20.954 18.449-.857 1.204-1.295 3.901-.805 5.885-.23 1.978-.5 3.367-1.007 6.606-6.15 11.526-17.166 22.904-15.52 29.053 1.204 4.5 2.088 5.074 6.856 6.65-.555 4.031 4.393 16.96 11.647 14.385-.578 2.709-1.04 4.76 2.572 9.43 5.425-.858 5.427 1.757 15.388 1.179 4.835-.28 9.322-6.481 14.122-5.81-2.002 20.576-6.785 41.046-4.752 55.644 1.571 11.275 4.85 28.127 9.696 30.85.894 7.496 6.107 14.49 9.438 17.208.81 16.142 6.39 16.31 3.665 34.77-1.495.71-2.665 1.897-3.23 3.974-11.3 3.554-16.206.447-17.836 9.76-3.43 2.857-5.776 6.473-5.034 9.394-5.274.294-9.738.552-9.738.552-1.291 1.61-3.625 1.91-4.834 3.618-.86 1.017-.676 2.365-1.406 3.452-1.04.763-4.337.623-4.337.623s-1.915 1.882-2.339 3.256c-.367 1.578-.336 3.213-.356 4.828.036 1.241-1.473 1.848-1.425 3.087-.017 2.34.376 4.817-.724 6.991-.376 2.91-.21 5.862-.303 8.79-1.478 1.45-3.408 1.924-3.75 4.12-.318 2.132-.253 4.38.443 6.435.696 1.643 2.782 2.392 4.112 3.207.38 5.903-.408 13.015 1.823 17.004-.015 4.598 2.09 9.106 4.971 11.33 0 0 3.072 1.527 4.217 2.922 2.14 2.043 19.858 3.562 25.108 4.104-3.158 3.19-6.007 6.76-6.007 9.366 0 2.607 3.978 8.652 10.182 8.652l157.934.122c8.075 0 12.038-6.78 12.038-9.149 0-2.369-3.071-6.922-5.376-9.07 5.25-.543 22.373-1.982 24.513-4.025 1.144-1.395 3.392-1.194 4.216-2.921 1.558-3.815 2.87-7.767 4.97-11.33.615-1.192.685-2.565.887-3.862a92.762 92.88 0 0 0 .556-11.523c.028-.55-.222-1.303.381-1.62 1.33-.815 3.417-.663 4.113-2.306.696-2.056.76-4.304.443-6.435-.342-2.197-2.272-3.57-3.75-5.02-.093-2.93.072-5.881-.303-8.791-1.1-2.174-.707-4.652-.724-6.991.047-1.239-1.462-1.846-1.425-3.087-.02-1.615.011-3.25-.357-4.828-.423-1.374-1.149-2.495-2.338-3.256-1.06-.73-3.298.14-4.339-.623-.729-1.087-.543-2.435-1.404-3.452-1.21-1.708-3.544-2.009-4.834-3.618 0 0-4.44-.255-9.136-.518.77-2.927-1.586-6.56-5.029-9.427-1.63-9.313-6.535-6.207-17.836-9.761-.564-2.077-1.735-3.264-3.23-3.975-2.725-18.46 2.854-18.627 3.665-34.769 3.331-2.717 8.544-9.712 9.438-17.207 4.847-2.724 8.126-19.576 9.696-30.85 2.034-14.6-2.749-35.069-4.751-55.644 4.8-.672 9.286 5.529 14.121 5.809 9.96.578 9.964-2.037 15.388-1.18 3.613-4.67 3.15-6.72 2.572-9.43 7.255 2.576 12.202-10.353 11.648-14.384 4.767-1.576 5.652-2.15 6.856-6.65 1.646-6.149-9.371-17.527-15.522-29.053-.506-3.24-.777-4.628-1.006-6.606.49-1.984.051-4.68-.805-5.885-5.744-8.08-13.446-14.89-20.954-18.449.129-3.368.19-11.028-7.425-13.633.102-2.734-.945-7.415-2.219-7.978-10.974-4.854-15.993 3.654-19.037 7.678-2.13-.67-4.53.573-5.913 1.636-5.912-.643-11.734-.24-16.72 1.138.723-6.144-2.26-11.122-4.764-16.003 8.54-10.211 3.426-17.57.48-20.046-1.231-1.035-8.206-6.824-16.735 1.074-1.581-1.9-3.802-3.861-6.408-4.578-1.776-.488-8.242 1.064-12.055-.98-3.727-1.997-5.304.576-9.303.576-3 0-4.637-1.448-6.84-1.329z"/><path style="fill:#fcef3c;stroke-width:16.8011;stroke-linecap:round" d="M52.148 320.33a1.297 1.586 34.682 0 1-1.97.567 1.297 1.586 34.682 0 1-.163-2.043 1.297 1.586 34.682 0 1 1.97-.566 1.297 1.586 34.682 0 1 .163 2.042zM264.741 81.94c0 1.9-1.402 3.44-3.132 3.44-1.73 0-3.132-1.54-3.132-3.44 0-1.901 1.402-3.442 3.132-3.442 1.73 0 3.133 1.541 3.133 3.441zm-237.925 0c0 1.9-1.403 3.44-3.133 3.44s-3.132-1.54-3.132-3.44c0-1.901 1.403-3.442 3.133-3.442s3.132 1.541 3.132 3.441zM163.65 33.286a3.133 3.44 0 0 1-3.132 3.44 3.133 3.44 0 0 1-3.133-3.44 3.133 3.44 0 0 1 3.133-3.441 3.133 3.44 0 0 1 3.132 3.44zm-35.884 0a3.133 3.44 0 0 1-3.133 3.44 3.133 3.44 0 0 1-3.133-3.44 3.133 3.44 0 0 1 3.133-3.441 3.133 3.44 0 0 1 3.133 3.44z"/><path style="display:inline;fill:none;stroke:#fcef3c;stroke-width:4.20027;stroke-linecap:butt;stroke-linejoin:miter;stroke-miterlimit:4;stroke-dasharray:none;stroke-opacity:1" d="M120.267 195.517c1.706.63 3.531 2.069 5.185 4.035 4.233 5.03 9.184 12.225 18.483 11.138m-11.55-3.618a15.798 15.798 0 0 1 5.31 9.022h9.282m-15.932-23.844c3.046 11.335 8.73 10.237 12.89 17.461 11.017-9.575 1.886-10.76.24-23.034m-5.763 1.326c-.145 10.44 7.18 11.46 5.523 22.687 10.38-.872 14.057-11.827 10.041-17.786m2.557-122.784c.234 2.788.752 5.42 1.623 7.861m-4.946-7.932c-.394 2.857-.867 5.715-1.527 8.578 7.196 3.276 6.298-2.562 8.173-4.438 4.54-4.547 10.112-1.335 10.128-3.215.036-4.282.241-12.015-2.052-11.42-1.804 10.131-15.331 14.683-25.433 5.567-10.101 9.116-23.63 4.564-25.432-5.568-2.293-.594-2.088 7.139-2.052 11.42.016 1.881 5.588-1.33 10.128 3.216 1.874 1.876.977 7.714 8.172 4.438-.66-2.863-1.132-5.721-1.527-8.578m24.745.07c.234 2.79.752 5.422 1.623 7.862m-6.539-5.555c1.42 4.167-1.576 15.058-9.11 12.793-7.135 1.914-10.546-8.626-9.28-12.793m18.998-47.762c-2.918 3.889-4.322 12.263-2.595 15.274 2.184 3.808 4.955 7.821 3.239 11.726-1.1 2.501-2.906-.931-6.002.187-2.835 1.083-.569 5.732-2.223 5.782 5.646 4.495 16.607 5.644 15.283-8.298M132.62 24.663c2.918 3.89 4.322 12.264 2.595 15.275-2.184 3.808-4.955 7.821-3.238 11.726 1.1 2.501 2.906-.931 6.001.187 2.835 1.083.569 5.732 2.224 5.782-5.647 4.495-16.607 5.644-15.284-8.298m38.437 4.557c-.798 14.74-12.37 14.514-20.932 6.689-8.562 7.825-20.134 8.051-20.932-6.689m21.04 15.292-.023 16.035m29.165-49.796c-1.354-.627-5.885-8.779-11.872-8.7-5.988.08-8.169 8.508-8.169 8.508 1.533 2.487 6.49 4.01 9.914 4.22 4.452.274 8.913-2.353 10.127-4.028zm-58.406 0c1.355-.627 5.886-8.779 11.873-8.7 5.987.08 8.168 8.508 8.168 8.508-1.532 2.487-6.49 4.01-9.913 4.22-4.452.274-8.913-2.353-10.128-4.028zm15.2 34.697c-.234 2.788-.753 5.42-1.623 7.861m50.622-40.291c3.744 15.826-2.36 21.383-6.005 38.233 0 0-8.893 1.025-10.152 6.145-1.642 6.677-12.765 11.686-18.809 11.686-6.043 0-17.166-5.01-18.808-11.686-1.26-5.12-10.152-6.145-10.152-6.145-3.644-16.85-9.75-22.407-6.005-38.233-1.653-17.193 18.788-30.032 34.965-28.432 21.594-.628 36.198 13.911 34.966 28.432zM90.215 359.4c-1.845-1.127-3.285-1.17-4.35-3.354m-6.297 4.703c.438-.15.826-.325 1.065-.572m-3.742-.323c.983-.347 1.929-.779 2.868-1.222m15.168 17.809.142-1.505c.247-.618 1.048-.728-.01-2.541-.433-.58-.242-1.546-.682-2.189-.994-.899-4.023-4.545-5.17-4.78-7.657-1.576-8.913-5.202-10.198-8.323M54.871 326.36c1.798-1.519.572-4.901.016-7.527 1.146 5 3.62 12.71 4.282 17.363M51.62 350.71c-.435-2.815.602-7.12 2.758-8.315m-.675 15.293c3.165.953 8.193.54 9.017-4.437m-10.92-16.21c-.334 1.171-.659 2.343-.88 3.53m4.833-24.365c3.516 1.88 6.936 8.392 7.244 12.513.503 6.743 2.848 11.242 8.878 12.176m-27.679 18.09-1.022.22-.258 1.548-3.949.586 1.01-3.449c1.33-1.086 1.12-2.21 2.133-3.303l5.15-3.779c.678-1.142 1.41-2.005 2.553-1.336.639.373 1.516.646 1.807 1.237-.715-2.654-1.357-6.586-.7-10.137-.987.146-1.511-.16-2.14-.362-1.297.395-3.056 1.455-4.255 2.261-.383 1.48-.274 1.789-.683 2.402l-1.034.088-.37 1.507-3.973.072 1.257-3.301c1.405-.909 1.276-2.055 2.366-3.012l5.403-3.093c.758-1.05 1.56-1.84 2.638-1l1.67.907c1.633-3.573 2.87-7.269 3.071-10.681-1.88 1.705-3.21 2.257-5.066 2.104-.85 1.523-1.853 2.042-2.531 1.336-1.414-1.47-1.248-2.053-1.963-3.56-.371-.783.03-1.817.804-2.387 1.556-1.147 2.66-3.105 3.857-4.894.011-.898.817-2.025 1.798-3.268-1.17-4.93 1.81-4.921 1.904-7.704 1.555.604 2.434 3.01 2.432 5.693 5.386.184 10.28 8.799 10.519 16.924.122 4.202 4.485 10.225 5.266 10.346 5.912.915 8.033-1.327 11.141-.846 4.868.753 8.155 4.067 8.683 5.312 2.096.898 3.192-.116 3.15-2.607-.088-5.317-1.345-11.19-.15-13.034 2.102-3.241 3.989-1.868 5.824-6.844 2.316 5.916-1.995 8.774-2.775 13.221-.678 3.87 1.244 7.192-.18 9.821-.395.73-3.985 4.723-5.758 2.39.07 3.433-.288 8.957-1.612 11.037 2.105 1.286 4.531 4.896 5.96 7.24.392 2.86 1.457 5.493 2.535 7.022.591.839.676 1.435.146 1.795.208.726.296 1.75.043 2.53-.678.083-3.628-.027-3.971-1.546-.44 1.529-2.25.075-3.852.05-.119-.652.542-1.3 1.038-2.09-.036-1.141-.649-3.185-1.249-4.134-1.096-1.731-1.463-2.357-3.55-3.114-2.832-.439-8.425-2.264-7.745-6.404-1.713.598-2.082 1.308-2.678-.895-8.048 2.978-14.285 2.855-23.187-2.167-1.011-.157-1.6-1.2-1.854-2.624-.436.141-2.146-1.265-2.933-1.765-.885.207-3.082 2.249-3.785 3.49-.704 1.24-.573 1.533-.935 2.196zm165.298 1.884c-.84-.465-1.406-1.074-1.757-1.794m-1.207 4.27a16.819 16.819 0 0 1-.717-2.084c2.2-1.024 2.466-3.494 1.422-5.248-.32-.538-.443-1.337.378-3.358m27.307 13.205c1.433-.197 1.91-5.236-.49-6.916m4.349 4.066c-2.74-2.494-3.18-3.317-6.666-5.834-2.857-2.064-1.576-5.279-2.97-7.08 2.046 3.927-1.216 8.276-2.661 9.24m-38.254-32.633c.156-1.948.553-3.785 3.287-2.947-.452.692-.498 1.256-1.409 1.836-.614.39-1.797-.27-1.878 1.11zm1.607 9.787c.34-.839.37-3.352 1.028-4.398 1.002-1.59 1.58-2.579 1.885-3.74m-6.832 7.423c.405-.96.586-1.509.884-2.492m5.059 15.058c.36-1.265 3.96-2.77 4.142-4.29m-3.764 7.887c.361-1.264 3.45-2.693 3.632-4.213m-2.876 8.144c.362-1.265 3.128-2.872 3.309-4.391m-1.258 9.257c.36-1.264 2.508-3.008 2.69-4.527m4.124 8.254c.071-4.203-4.265-4.752-5.7-13.912-.716-4.573-.627-10.26 3.825-13.454-3.158 1.93-7.21 3.663-8.413 6.163m3.861 20.109c2.468-.405 2.183 2.361 4.967 1.57m-9.098-30.97c.147-2.72 9.171-5.277 4.845-12.147m-1.887.958c.592-.745 1.249-1.242 1.887-.958 2.145.951 4.365-.565 5.123-1.261m-4.097-2.953c-.914.787-1.183 1.614-1.418 2.444-.482.172-.951.364-1.607.235m-.32-6.553c-.217 1.204-.876 2.57-1.744 4.011-.648-.068-1.348.055-2.347 1.25m-4.513 15.52c1.897-4.693 1.787-5.86 1.936-7.447-.005-6.689 2.58-5.05 2.802-9.48 1.995-2.02.97-6.55-.898-9.161 2.38.824 3.562 2.747 4.764 5.307.59-2.612.337-5.098-.023-7.567 1.636 2.516 3.992 7.295 2.655 10.85l.713.591c1.37-1.203 4.039-2.888 5.583-1.61-.027 1.619-.12 3.055-1.485 4.563 3.642 2.7 5.28 8.495 5.898 11.179 1.804-1.526 4.315-1.626 5.962-.4 2.723 2.029.575 6.448 2.24 6.412 8.462-.185 8.468-2.75 11.534-2.718 3.44.037 5.118 1.307 7.694 2.095 7.341 2.244 6.245-9.21 7.684-13.793.857-2.729 2.472-6.071 6.13-5.219-2.012 1.358-.772 5.675-4.286 5.749-2.334.049.435 14.48-6.586 15.9 3.533 4.429 2.01 10.971 3.19 15.874a11.452 11.452 0 0 0 3.383 5.8c-1.041 8.527 2.645 8.631.915 10.304.341.548.448 1.43.418 2.184l-2.92.483c-.118-.645-.204-2.355.212-2.722.36-1.963-1.223-6.33-3.958-8.678-.37 2.062-2.111 1.652-.75 7.605.195.79.277 1.982-.63 2.166.252.424.33 1.796.417 2.324l-2.868.366c.075-.838.08-1.763.546-2.66-.428-1.247-.709-5.112-.21-6.988-4.39.705-1.61-6.443-4.186-8.102-.873 1.207-1.781 3.79-3.546 5.235-1.272-.738-2.572-1.252-2.145-1.926l1.075-1.695c-4.817 2.421-12.788 3.442-16.988 1.534-.802.92-1.855 1.713-2.964 2.477.525 1.413.007 5.864.819 7.617.581 1.181.747 2.243-.398 2.93.543 1.011.807 2.517.977 3.626l-4.484.144c.024-1.42.492-2.49.997-3.573-.074-1.663-.741-5.614-1.437-7.435-.906-.53-1.125-1.462-1.146-2.193l-1.46.476c-.863 2.647-4.42 5.74-2.905 8.564-.325 1.003-1.124.89-1.805 1.055-.055.983-.074 2.242-.715 3.312l-3.93.078c.667-1.417.803-2.761 2.097-3.93-.03-2.522 3.566-8.466 2.291-10.65-.255-.938-.748-1.601-.387-2.632-1.768-.892-2.15-2.848-2.05-4.866-1.149-.985-1.37-1.059-.757-3.93-.481-1.031-.846-2.155-.378-3.598.28-1.453.113-2.405-.361-3.433-.954-2.072 2.582-3.69 2.42-6.058-1.691-.803.814-5.257-2.617-4.883-.226.667.14 1.69-.931 2.327-1.837 1.091-5.662-.508-5.147-1.78zm-43.028 69.148V382.15m-13.388-73.633 10.392 24.563m-18.069-20.033 16.364 21.004m-22.609-14.638 21.254 16.061m-25.64-8.294 24.79 10.05m-27.02-1.41 26.516 3.28m-26.436 5.642 26.478-3.706m-24.095 12.304 24.713-10.481m-20.188 18.168 21.246-16.594m-14.888 22.847 16.204-21.498m-8.447 25.89 10.126-25.04M138 373.905l3.317-26.88m5.594 26.8-3.74-26.797m12.327 24.41-10.541-24.917m18.219 20.388-16.59-21.295m22.835 14.929-21.587-16.313m25.974 8.546-24.976-10.125m24.742-16.035-24.654 10.457m20.13-18.144-21.105 16.484m14.747-22.737-16.05 21.292m8.292-25.684-10 24.728m1.372-26.96-3.257 26.395m-5.654-26.315 3.672 26.307m34.97 11.698-26.637-3.295m26.557-5.628-26.494 3.708m-8.42-2.436c1.921-.66 4.182.7 4.504 2.705.44 1.98-1.16 4.087-3.186 4.183-1.726.18-3.423-1.121-3.728-2.82-.393-1.72.723-3.584 2.41-4.068zm.146-33.14a34.564 34.564 0 0 0-4.02.337c-6.161.809-12.092 3.272-17.04 7.03-7.21 5.421-12.3 13.6-13.9 22.495-1.851 9.851.564 20.432 6.606 28.437 5.99 8.146 15.503 13.572 25.562 14.533 10.035 1.073 20.436-2.29 27.929-9.062 7.52-6.648 12.088-16.513 12.208-26.563.261-10.25-4.084-20.484-11.622-27.419-6.858-6.48-16.317-10.024-25.723-9.787zm3.514 2.538c.906.08 1.85.186 2.774.33.273 2.668 4.428 3.713 5.928 1.494.851.32 1.734.659 2.586 1.047-.435 2.64 3.31 4.733 5.327 2.986.727.543 1.469 1.124 2.23 1.663-1.074 2.446 1.96 5.435 4.38 4.289.573.714 1.134 1.46 1.733 2.182-1.691 2.09.494 5.758 3.136 5.28.392.888.724 1.625 1.095 2.56-2.183 1.55-1.018 5.687 1.65 5.892.143.96.282 1.768.386 2.775-2.488.941-2.431 5.216.077 6.099a63.025 63.025 0 0 1-.315 2.78c-2.654.267-3.73 4.438-1.5 5.926-.374.997-.63 1.653-1.048 2.607-2.633-.439-4.718 3.3-2.992 5.325-.56.756-1.096 1.471-1.672 2.242-2.44-1.078-5.412 1.975-4.259 4.39-.753.573-1.448 1.128-2.207 1.728-2.049-1.688-5.743.492-5.235 3.115-.864.388-1.658.788-2.572 1.112-1.552-2.174-5.686-1.014-5.877 1.654-.937.142-1.809.294-2.778.382-.962-2.497-5.212-2.418-6.112.09-.934-.112-1.803-.188-2.758-.337-.283-2.654-4.426-3.716-5.922-1.494-.88-.344-1.7-.649-2.591-1.04.426-2.654-3.314-4.735-5.347-3.002a53.098 53.098 0 0 0-2.217-1.657c1.086-2.444-1.952-5.441-4.367-4.284-.586-.749-1.118-1.43-1.734-2.19 1.58-1.972-.488-5.311-2.971-5.196-.486-.846-.882-1.822-1.254-2.638 2.166-1.562 1.018-5.682-1.64-5.893a45.686 45.686 0 0 1-.399-2.775c2.48-.952 2.443-5.224-.073-6.101.07-.815.187-1.802.314-2.775 2.654-.29 3.734-4.435 1.512-5.938.312-.878.66-1.743 1.04-2.593 2.632.41 4.728-3.302 2.994-5.328.55-.757 1.11-1.505 1.68-2.246 2.45 1.073 5.403-1.98 4.259-4.396.76-.59 1.426-1.1 2.21-1.716 2.045 1.682 5.728-.492 5.235-3.11a30.29 30.29 0 0 1 2.578-1.118c1.54 2.178 5.67 1.023 5.869-1.637.88-.176 1.816-.288 2.732-.405.96 2.494 5.226 2.447 6.115-.079zm-2.602 26.59c-4.04 0-7.316 3.296-7.316 7.362 0 4.065 3.275 7.36 7.317 7.36 4.04 0 7.316-3.295 7.317-7.36 0-4.066-3.276-7.362-7.318-7.362zm.094-34.835c-23.632 0-42.79 18.893-42.79 42.2 0 23.305 19.158 42.199 42.79 42.199 23.633 0 42.79-18.894 42.79-42.2 0-23.306-19.157-42.2-42.79-42.2zm0 2.551c21.836 0 39.538 17.751 39.538 39.648 0 21.897-17.702 39.65-39.538 39.649-21.835 0-39.537-17.751-39.538-39.649 0-21.897 17.703-39.648 39.538-39.648z"/><path id="a" style="display:inline;fill:none;stroke:#fcef3c;stroke-width:4.20027;stroke-linecap:butt;stroke-linejoin:miter;stroke-miterlimit:4;stroke-dasharray:none;stroke-opacity:1" d="M142.195 297.628c-26.997-.04-75.016 2.443-95.543 3.58m95.543 86.037c-9.602 0-65.065.691-84.088-1.716m40.455-102.496c1.92-10.268 3.16-22.053 3.494-31.193m-10.591 47.256c1.024-1.037 1.593-1.534 1.884-2.382.515-2.464-2.541-2.174-2.647-.1-.045.544-.142.592.763 2.482zm40.961-1.241c.612-1.828.749-3.75.596-4.908-.84-3.161-4.327-.949-3.227 1.512.267.656.43 1.77 2.631 3.396zm-16.827.073c1.098-1.584 1.624-3.41 1.8-4.565.077-3.27-3.89-2.123-3.52.547.074.706.06 1.84 1.72 4.018zm-15.248.871c1.378-1.346 2.143-3.049 2.535-4.15.694-3.197-3.418-2.821-3.56-.13-.061.707-.192 1.828 1.025 4.28zm.116-9.981c1.481-1.067 3.95-1.03 5.478-.264m11.303-10.594c-1.281-.687-2.492-.631-3.635.124m7.145 9.229c-1.617-1.25-2.757-1.341-3.528-1.417m14.446-6.567c-1.077-2.136-3.997-1.74-5.222-1.273m6.797 9.966c-1.595-1.122-3.126-1.365-4.681-.679m-7.99-11.577c.572 1.457.915 2.861.378 4.063 1.896 2.495.96 5.47-.2 7.484 2.563 2.014 1.703 7.276.948 10.567m-8.132-22.59c.145.93.294 1.862.039 2.794-3.422 2.555-3.417 4.745-2.37 6.823.185.483.463.937 0 1.626-4.157 6.155-1.411 8.895-.734 11.922m-10.014-15.386c-.306 1.297.511 4.16-.029 5.748-1.245.938-2.563 1.455-3.6 3.61-.582 3.234-.547 4.596.045 6.346m9.926-24.532c1.261-1.316 3.047-1.57 4.743-1.1m-6.43-6.061c.641-1.149 1.777-1.685 3.038-2.068m-16.145 28.367c1.052-.588 1.837-.696 2.876.01m.677-95.51c-2.55 30.381 6.141 46.68 9.555 69.2-1.494 2.67.232 4.775 1.686 7.162-2.386 2.481-5.718 5.587-6.342 8.828-1.659-.08-6.661-.345-7.713 3.349-.613 2.212-.59 4.612-.739 6.961-2.892.348-3.9 2.985-3.828 5.684m49.48-82.97c0 13.897-6.527 36.838-6.02 63.236 1.078 2.664 1.576 4.51 1.576 8.693 5.517 3.896 3.826 8.522 2.837 9.545m-3.703-90.495a15.798 15.798 0 0 1 5.31 9.022M50.46 301.076c-9.018 0-14.247 3.6-14.247 7.386m21.017-7.784c-9.018 0-14.247 3.6-14.247 7.386m21.018-7.744c-9.018 0-14.247 3.6-14.247 7.386m21.018-7.665c-9.018 0-14.247 3.6-14.247 7.387m21.018-7.745c-9.019 0-14.248 3.6-14.248 7.386m21.018-7.704c-9.018 0-14.247 3.6-14.247 7.386m21.018-7.704c-9.018 0-14.247 3.6-14.247 7.386m21.018-7.666c-9.019 0-14.248 3.88-14.248 7.666m21.018-7.947c-9.018 0-14.247 4.16-14.247 7.947m21.018-8.187c-7.688 0-14.247 3.79-14.247 8.187m21.018-8.505c-7.967 0-14.248 3.797-14.248 8.505m21.018-8.505c-6.77 0-14.962 3.801-14.962 8.505m-47.694 97.113s-5.416-5.775-5.416-8.714c0-2.94 5.416-8.715 5.416-8.715m6.771 17.77s-5.375-5.775-5.375-8.715c0-2.94 5.375-8.715 5.375-8.715m6.77 17.314s-5.375-5.55-5.375-8.489c0-2.94 5.376-8.715 5.376-8.715m6.77 17.207s-4.698-5.325-4.698-8.264c0-2.94 4.698-8.715 4.698-8.715m6.771 16.867s-4.698-5.1-4.698-8.04c0-2.94 4.698-8.715 4.698-8.715m6.77 16.867s-4.02-4.987-4.02-7.927c0-2.94 4.02-8.715 4.02-8.715m6.771 16.417s-4.02-4.65-4.02-7.59c0-2.939 4.02-8.714 4.02-8.714m6.771 16.417s-3.344-4.763-3.344-7.702c0-2.94 3.344-8.715 3.344-8.715m6.77 16.417s-3.343-4.763-3.343-7.702c0-2.94 3.344-8.715 3.344-8.715m6.77 16.53s-2.667-4.876-2.667-7.815c0-2.94 2.668-8.715 2.668-8.715m6.77 16.417s-2.667-4.763-2.667-7.702c0-2.94 2.667-8.715 2.667-8.715m6.77 16.417s-1.99-4.763-1.99-7.702c0-2.94 1.99-8.715 1.99-8.715m-96.806-3.668c-.997-1.642-2.125-3.627-2.125-4.253 0-.627 7.056-3.987 7.452-4.55m1.444 9.762c-.997-1.642-2.126-3.626-2.126-4.253 0-.627 7.057-3.987 7.453-4.55m1.444 9.401c-.998-1.642-2.126-3.626-2.126-4.252 0-.628 7.056-3.987 7.452-4.55m1.286 9.64c-.998-1.643-1.967-3.786-1.967-4.413 0-.627 7.335-4.185 7.73-4.748m.09 9.479c-.997-1.642-1.966-3.786-1.966-4.412 0-.627 7.334-4.186 7.73-4.748m.57 9.518c-.998-1.642-1.967-3.786-1.967-4.412 0-.627 7.335-4.186 7.73-4.748m1.008 9.399c-.998-1.642-1.967-3.786-1.967-4.413 0-.627 7.334-4.185 7.73-4.748m1.007 9.343c-.998-1.642-1.967-3.73-1.967-4.356 0-.627 7.335-4.185 7.73-4.748m1.685 9.28c-.998-1.642-1.967-3.786-1.967-4.413 0-.626 7.335-4.185 7.73-4.748m2.362 9.161c-.998-1.642-1.967-3.786-1.967-4.413 0-.626 7.335-4.185 7.73-4.748m3.039 9.161c-.998-1.642-1.967-3.786-1.967-4.413 0-.626 7.335-4.185 7.73-4.748m9.81 9.161c-.999-1.642-1.968-3.786-1.968-4.413 0-.626 2.738-2.96 3.134-3.523m4.25 7.936c-.998-1.642-1.967-3.617-1.967-4.244 0-.627 1.215-1.922 1.611-2.485m6.45 6.729c-.998-1.642-1.968-3.108-1.968-3.735 0-.626.3-1.315.696-1.877m-99.89-8.21c26.221 5.266 61.355 4.661 87.967 4.661-.487.211-7.73 4.122-7.73 4.748 0 .627.969 2.77 1.967 4.413m-2.27-80.769c-28.894.183-62.065 0-85.397 2.356 8.534 0 8.972 72.593 2.331 72.593m-6.669-71.97c9.012 0 9.094 69.05 2.453 69.05m-5.148-60.967c5.582 0 6.668 49.635.177 49.635m-4.602-29.098c3.495 0 3.925 10.828.674 10.828m1.3-12.495c4.178 0 4.692 13.76.805 13.76m74.53-194.484c-11.807 16.235-4.622 19.401-11.213 23.44-2.616-2.004-1.932-16.221 2.848-19.07m9.173 8.6c-2.586 3.026-4.749 8.026-6.062 11.895-1.458 4.293-5.285 10.934.713 12.621-.143-8.023 4.523-8.059 9.553-23.89m-8.89-27.27c13.298-10.391 11.914-17.052 15.123-24.738 2.55-8.992 11.693-25.332 12.764-29.127m-35.319 72.55c9.356-8.638 1.346-10.978 15.417-17.37m-14.104.121c1.379-14.837 7.395-28.02 9.52-29.9 11.656-12.606 9.512-23.615 19.073-32.373m-28.593 62.273c3.76-2.628 5.894-7.886 8.375-16.064 2.482-8.178 4.737-11.017 4.737-11.017m-.482 26.214c-.17-.547 7.777-4.963 11.65-9.763 3.588-4.448 8.228-8.643 10.72-10.941 10.574-7.93 12.795-12.481 12.76-25.28m-27.64 44.895c-2.592 2.104-7.072 2.812-7.49 1.09-.18-2.518 2.499-8.41 4.862-11.301 9.099-11.135 24.06-24.654 25.683-36.329.072 8.157-2.642 15.858-8.176 26.925 21.107-2.629 18.957-21.303 18.212-24.017m-39.422 53.235c10.347-6.575 13.677-11.224 20.224-12.643m-16.83 15.47c-5.07 2.13-5.735 1.72-7.186 1.764-2.963-5.131 10.357-14.386 14.026-17.085 4.24-3.12 4.954-4.978 14.357-11.104m1.19 13.434c-9.697 12.92-15.733 14.58-26.086 25.025m20.091-22.804c-1.944 2.356-8.079 6.653-16.392 10.77-7.297 10.217-7.515 11.946-6.378 14.733 2.872 1.13 5.949 1.482 9.845-3.598m19.169-11.425c-15.716 20.833-8.45 5.146-25.209 28.92-6.16 14.09-10.468 7.53-8.786 15.213 3.66 1.514 9.209-2.437 10.582-4.196 7.486 2.645 13.635-10.007 17.501-12.781m-16.574 5.634c-3.761-2.363-3.987-8.795-1.78-12.433 1.361-2.245 1.23-4.007 5.356-9.27 3.14-4.004 6.224-2.888 8.287-5.132 3.743-4.072 1.462-1.383 4.806-5.263m2.188 17.487c-6.422 5.594-12.444 12.975-18.854 21.576-2.434-.962-2.05-3.695-.003-6.965 1.428-2.281 2.208-4.615 4.454-6.817 4.303-4.22 5.377-2.598 12.342-10.512m-.554-25.941c8.851-1.72 11.533-13.246 19.731-14.673M114.16 193.7c9.425-2.05 18.22-9.23 27.315-14.874m-.542-4.988c-2.751 1.021-10.403 5.34-15.361 10.304-2.395 2.397-9.91 3.185-11.411 9.558 8.005 6.187 25.65-5.298 28.589-9.813m-1.323-25.08c-10.229 12.55-16.992 16.774-19.585 26.462m17.87-18.104c-2.604 2.51-5.474 5.418-7.944 8.308-3.365 3.936-5.645 7.92-9.926 9.795-3.488-3.528-.685-9.233 5.971-16.028 2.91-2.97 3.641-6.06 5.12-7.301m7.275-15.525c-11.114 14.918-15.72 13.95-20.58 22.215-3.047-2.421 9.825-18.609 14.287-23.172m7.13 7.562c-5.505 8.243-19.328 18.745-21.417 15.61m.896-14.307c7.696-9.333 15.384-18.61 19.142-19.734m-10.116 1.886c-2.925 3.007-6.381 13.843-9.026 17.848 7.449.4 15.45-12.918 20.486-15.008m-.521-16.68c-9.806 1.227-12.82 9.416-20.391 20.516m0 0c1.399-17.151 12.054-25.935 21.76-25.935m-15.913-25.68c-1.07 3.794-10.906 21.352-20.437 33.143m-14.97-12.772c15.68-17.438 12.95-30.396 23.002-35.983m4.872 8.693c-6.278 6.372-8.456 17.258-12.234 23.608-2.937 3.457-4.964 18.005-8.408 26.787-5.886 11.858-9.468 3.713-12.56 25.683m26.945-90.423c-5.418 1.205-7.994 3.622-11.054 9.489-5.17 9.914 1.06 9.927-9.677 24.523-1.509 2.355.72 8.137-1.57 18.788m18.199-65.503c-5.944-.004-12.106 3.153-12.844 11.18-.564 6.125-1.415 8.618-3.204 15.083m14.86-31.594C95.359 49.743 92.007 59.693 92.052 62.8m14.639-16.723c-3.418-.395-13.878-2.982-15.141 7.357m15.81-13.51c-1.452-.276-11.304-2.794-13.745 2.74-4.726 10.715.512 21.779-1.799 38.231.107 6.36 2.204 6.456 2.46 8.467.755 5.959-2.63 6.333-2.852 14.922.091-6.835 5.1-8.65 4.613-13.944-.867-9.398 2.664-12.3 3.156-16.732.507-4.567 5.462-8.803 11.405-8.8m-3.12-30.381c-3.346-.803-8.762-2.612-12.906.871m14.323-6.83c-2.163-1.305-8.795-2.805-12.014 1.25m14.098-6.264c-2.163-1.304-8.55-2.804-11.77 1.25m15.09-4.385c-1.137-2.813-10.923-4.366-13.798 1.152m18.273-5.39c-1.621-2.846-7.47-5.471-12.713-3.497m16.138 1.432c-.644-2.942-2.934-5.436-7.464-6.366-6.217-1.277-13.662 10.558-16.256 18.972m27.058-14.602c-.052-2.702-1.005-7.64-4.292-8.98m9.475 7.135c0-2.39-.599-5.06-1.315-7.254m6.704 6.129c0-2.391-.061-5.011-.778-7.207m4.986 7.207.168-6.452M86.52 143.445c-1.877 4.05-3.52 10.539-1.312 17.249 2.205 1.961 11.13-8.173 12.09-10.104m-14.911-24.267c.785 3.478 3.444 10.18 4.584 13.021m-13.015 20.7c-7.743-4.301-11.554-9.07-9.806-16.58m25.69 48.6c-3.9-3.212-3.807-5.86-9.4-9.7m-4.696-19.413c1.578 13.423 13.885 20.689 13.31 23.693m-4.804-20.956c-6.624-3.093-2.22-17.206-5.867-17.94-8.512-1.433-17.074-17.756-17.194-35.06-2.328 8.687-1.282 24.877 2.96 30.776-.897 1.21-1.91 2.803-3.061 2.956-3.939-.198-4.568-12.528-4.764-18.954m12.714 44.142c-10.61-4.85-15.384-11.547-15.227-23.743m12.61 13.448c2.59 3.787 11.421 9.141 11.924 13.363-10.536 4.11-15.037.773-18.899-2.205-3.618-2.827-7.874-8.64-7.554-10.843m6.682-17.383c-1.07 6.822.983 11.731 5.209 15.506 4.087 3.653 14.185 4.658 15.964 1.798 2.448-3.937-9.747-7.008-10.025-13.607m18.41 48c.977.618 1.446 1.208 4.212 1.82m-25.932-21.549c15.835 3.228 20.72 10.095 5.595 14.076m-19.595-17.517c4.3 5.038 23.195 13.542 23.195 13.542m.617-63.272c.373 5.705 3.231 15.603 9.328 22.806m-21.402-2.384c2.878 2.54 10.442 9.345 14.233 4.284 2.189-2.356-5.183-9.525-6.852-15.623.952-9.47-5.333-28.208-11.905-32.869m2.315 95.808c5.877 1.347 9.223 3.016 19.338 2.183m-12.465 4.948c3.826 1.454 8.58 2.378 12.398-.52 2.016-1.53 6.498 1.43 8.042-3.593.947-3.08-8.367-4.368-11.246-6.71-1.674-1.363-4.337-.855-8.047-1.184-1.922 4.203-4.682 5.272-16.703 4.107 14.806 1.565 14.29 7.871 18.521 11.051 2.456 2.206-.865 7.96-4.383 5.014m-17.429-32.434c-.354 7.07 6.89 11.416 10.511 13.232m-9.699 9.173c2.063 4.237 12.854 16.835 17.189 15.224.546-2 .282-4.128-.572-5.194-1.964-7.245-16.94-16.405-17.848-20.784m17.184 34.499c-3.907-.133-12.633-8.678-14.182-14.264m8.623 11.177c.593 6.28 2.163 10.101 7.027 12.616M24.353 117.752c3.578 2.783 5.2 6.42 4.254 7.884-1.878.037-4.6-1.062-6.54-3.47m-9.408 5.675c1.678-9.582 3.983-15.421 7.404-24.605m-15.776 10.5c1.103-2.103 4.758-3.043 6.287-2.943-1.296 4.227-.645 7.129.395 9.633 2.015-7.9 3.943-12.284 5.516-15.592m4.156-26.717c2.144-6.606 6.523 2.404 13.897-5.008-3.773 5.46-11.04 8.873-8.606 17.97m-.325-6.38c-2.18 1.427-4.41.498-5.972.023m65.605-.91c6.182 2.106 7.449 9.476 5.617 23.105M87.36 127.47c-2.967-6.3-9.057-6.653-7.31-20.797m-8.645-4.203c2.488 6.282 2.065 11.615 3.406 15.834 1.76 5.54 3.922 7.78 12.549 9.165 1.754-8.221-2.543-9.965-.682-21.868m-27.847 3.643c8.596 9.574 5.308 19.381 12.702 22.88 1.796-2.012 4.439-8.058 3.264-13.838M59.81 90.013c5.302-8.15 18.374 12.531 21.846 12.772 3.037-1.898-3.185-10.465-7.63-14.86-5.347-5.29-12.416-7.507-16.756-5.066m3.33 14.042c3.22-5.778 7.747.704 10.036 4.416 1.712 2.776 7.756 7.61 16.042 4.284 1.404-5.159-1.638-11.817-5.245-17.023-8.626-12.45-23.138-15.555-24.163-5.719M77.3 59.182c5.183 1.423 10.801 3.663 14.452 6.357M85.11 83.781c2.902-3.437 5.16-3.189 6.894.05m-.122-25.524c-6.1-4.397-20.265-6.94-27.707-7.06m19.213 35.278c.444-4.564-5.797-11.535-12.735-14.32-5.478-2.2-12.655-3.835-16.98 3.253M51.24 70.31c6.253-9.666 16.62-5.291 24.214-1.97 9.86 4.315 14.758 12.4 5.98 20.238M50.058 67.673c-.726-3.773 2.574-9.367 9.838-9.232 8.57.16 14.825 9.621 18.625 8.167 2.242-.858 9.27.664 13.811 9.42M59.331 52.129c8.195-1.684 22.055 7.452 21.224 14.45M56.503 45.416c-7.552-1.142-11.493 5.786-9.664 11.73m1.42.966c.182-4.019 5.386-6.083 8.6-5.857 8.612.606 13.636-9.653 14.222-12.406m-21.255.3c4.387-1.44 8.248 3.776 7.104 12.175.902-3.964-.804-18.814-4.437-20.302m-.813 259.795c.752-.583 1.57-.972 2.483-1.079M42.4 53.783c2.967 4.44 4.633 2.584 5.859 4.33-.84 11.65 10.322 19.26 12.34 38.789-1.57 2.823-4.1 7.198-1.768 12.342-2.47 3.342-2.537 11.87-2.505 18.222-1.85 2.839-1.628 7.594-1.628 12.144m14.383 103.702c-.466-6.859-2.385-21.135-4.203-28.536m4.638 67.28c-.329 1.226.127 2.199 1.02 2.838m-1.333 15.158c.069-.772-.165-4.57-.764-5.377 4.427-.91 4.096-2.194 3.91-5.991m-11.647 2.48c1.583-.615 4.08-.853 5.341-.009m-3.491-4.514c-1.228 1.44-2.23 2.85-1.85 4.523-6.463 2.706-4.82 7.401-4.072 9.715m16.116-22.798c3.444-1.683 6.161-.815 8.748.514m-31.585 22.218c1.024-1.038 1.594-1.958 1.885-2.806.515-2.464-2.542-2.174-2.648-.1-.045.544-.142 1.016.763 2.906zm9.868-.389c1.378-1.347 2.143-2.541 2.535-3.642.694-3.196-3.418-2.821-3.56-.13-.061.707-.192 1.319 1.025 3.772zM69.11 44.218c4.279 4.779 14.725 1.219 23.182 7.351m-69.401 52.762c-4.505 11.35-6.2 18.987-7.653 27.773 1.462-3.3 5.707-8.312 7.605-11.368 3.524-5.673 3.264-10.699 3.583-17.168.05-1.007 1.352-2.579 2.983-.866 2.308 2.424 4.795 4.407 7.818 6.688-.31 3.715-4.647 4.176-8.762 13.556m-5.849 11.865c.586-2.233 2.88-7.387 4.112-9.139m43.234 64.516c-3.742-3.879-10.768-4.932-14.044-7.459-1.852-2.054-1.438-4.323-2.438-7.36-.962-2.917-2.91-5.274-2.454-7.638"/><use xlink:href="#a" transform="matrix(-1 0 0 1 284.391 0)" width="100%" height="100%" style="stroke-width:3.73357"/></g><g aria-label="WEST BENGAL POLICE" style="font-size:9.87778px;line-height:1.25;letter-spacing:1.48696px;word-spacing:0;display:inline;fill:#fcef3c;stroke-width:.267841"><path d="m107.5 144.098.483 1.712-4.699 2.619 5.372-.232.485 1.722-4.701 2.609 5.374-.223.48 1.699-7.392.32-.581-2.06 4.914-2.745-5.62.242-.581-2.06zM111.058 155.432l2.087 4.556-1.276.584-1.314-2.867-1.219.558 1.236 2.697-1.276.584-1.236-2.696-1.5.687 1.359 2.964-1.276.585-2.132-4.653zM116.691 166.347l-1.288.814q-.093-.643-.28-1.192-.188-.55-.456-.973-.356-.563-.68-.734-.326-.17-.652.035-.245.155-.27.422-.018.269.186.807l.288.754q.438 1.144.293 1.835-.145.69-.912 1.176-1.007.636-1.879.349-.865-.286-1.641-1.513-.366-.579-.625-1.231-.259-.653-.411-1.372l1.325-.838q.059.779.242 1.421.19.645.51 1.15.325.514.67.679.343.164.661-.037.286-.18.322-.466.039-.281-.19-.913l-.25-.692q-.38-1.037-.22-1.732.162-.69.887-1.15.91-.574 1.77-.296.86.277 1.556 1.378.317.502.575 1.08.262.577.469 1.239zM117.784 167.592l4.364 5-1.057.922-1.57-1.798-4.368 3.812-1.22-1.399 4.367-3.812-1.573-1.802zM127.14 179.944q.37.235.665.193.295-.042.497-.36.199-.313.11-.597-.085-.289-.456-.524l-.868-.55-.816 1.288zm-1.633 2.693q.472.3.835.25.367-.047.623-.45.25-.396.138-.741-.11-.35-.587-.652l-.92-.583-1.01 1.593zm2.845-1.263q.412.467.438 1.038.027.57-.337 1.145-.558.88-1.426.934-.869.055-2.083-.714l-2.603-1.65 3.856-6.082 2.354 1.492q1.267.803 1.59 1.545.328.745-.206 1.588-.282.444-.688.626-.405.178-.895.078zM132.759 179.936l4.668 1.822-.51 1.307-2.938-1.146-.488 1.249 2.764 1.078-.51 1.308-2.764-1.078-.599 1.536 3.038 1.185-.51 1.308-4.768-1.86zM139.23 182.315l2.038.38 1.67 5.335.905-4.855 1.73.322-1.318 7.08-2.04-.38-1.67-5.336-.904 4.856-1.73-.323zM154.033 190.394q-.699.33-1.448.49-.75.16-1.545.152-1.8-.02-2.84-1.034-1.04-1.02-1.021-2.742.02-1.74 1.1-2.727 1.082-.987 2.944-.966.718.008 1.373.15.66.142 1.24.414l-.016 1.49q-.6-.35-1.196-.525-.591-.175-1.19-.181-1.108-.012-1.718.603-.605.61-.617 1.763-.013 1.143.559 1.772.572.628 1.638.64.29.003.535-.028.252-.036.45-.11l.016-1.4-1.134-.012.014-1.244 2.893.032zM161.272 188.74l-2.87.441-.253 1.366-1.845.284 1.542-7.523 2.188-.336 3.73 6.712-1.844.283zm-2.615-.95 1.95-.3-1.408-2.682zM163.827 182.17l1.76-.591 1.849 5.494 3.09-1.04.447 1.33-4.85 1.633zM173.566 178.03l2.512-1.785q1.12-.797 2.072-.723.954.068 1.608.987.657.924.41 1.85-.245.921-1.365 1.718l-.998.71 1.448 2.036-1.513 1.076zm2.293.021 1.166 1.64.837-.596q.44-.313.53-.696.085-.387-.194-.78-.28-.393-.67-.435-.391-.041-.832.272zM182.577 172.106q-.582.619-.445 1.389.136.77.965 1.55.826.777 1.603.866.777.088 1.359-.53.585-.622.448-1.392-.136-.77-.961-1.547-.83-.78-1.607-.869-.777-.089-1.362.533zm-.98-.922q1.19-1.264 2.587-1.3 1.398-.036 2.673 1.163 1.272 1.196 1.322 2.594.05 1.397-1.14 2.662-1.186 1.261-2.588 1.3-1.397.037-2.67-1.16-1.275-1.199-1.324-2.596-.046-1.401 1.14-2.663zM185.177 167.15l1.03-1.544 4.823 3.218 1.81-2.712 1.167.78-2.84 4.256zM188.886 161.207l.86-1.646 6.383 3.333-.86 1.646zM199.32 154.466q.059.573-.02 1.138-.078.566-.3 1.126-.663 1.673-1.983 2.28-1.324.607-2.925-.027-1.605-.635-2.15-1.982-.551-1.35.111-3.022.222-.56.552-1.026.33-.466.765-.844l1.386.549q-.518.35-.855.756-.337.406-.541.922-.366.924.016 1.687.383.764 1.423 1.176 1.036.41 1.837.115.802-.295 1.168-1.218.204-.516.236-1.043.032-.527-.105-1.136zM193.628 149.956l1.231-4.858 1.36.344-.774 3.058 1.3.33.728-2.876 1.36.345-.728 2.875 1.6.405.8-3.16 1.36.344-1.256 4.96z" style="font-weight:700" transform="matrix(1 0 0 .97582 -91.972 -77.116)"/></g><g style="font-size:20.6915px;line-height:1.25;letter-spacing:0;word-spacing:0;display:inline;fill:#fcef3c;stroke:#fcef3c;stroke-width:.251439"><path style="font-family:'Shit Happens';-inkscape-font-specification:'Shit Happens';fill:#fcef3c;stroke:#fcef3c;stroke-width:.251439" d="M91.76 120.088c1.349-.378 3.063-1.435 5.145-3.153a16.135 16.135 0 0 0 2.11-2.096c.8-.982 1.183-1.794 1.15-2.454-.041-.812-.818-1.265-2.331-1.36-1.088-.056-2.226.265-3.391 1-1.166.718-1.787 1.492-1.886 2.342-.08.736.486 1.227 1.408 1.284.922.057 1.777-.283 2.565-1.02.564-.51.846-.981.847-1.435a.786.786 0 0 0-.292-.66c-.099-.076-.17-.095-.192-.057-.006-.113.02-.057.102.151.081.208.136.359.115.415-.047.472-.354.926-.872 1.398-.834.755-1.594 1.113-2.232 1.076-.639-.038-.96-.321-.987-.869-.045-.887.504-1.699 1.644-2.454 1.028-.661 2.071-1 3.155-1 .873 0 1.314.339 1.348 1.019.032.623-.262 1.34-.883 2.114a22.937 22.937 0 0 1-4.884 4.588c-.774.548-1.461.944-2.087 1.152-.236 0-.52-.02-.852-.057-.118-.019-.188 0-.185.057.002.038.027.075.075.094.144.057.358.076.665.095.615.037 1.367 0 2.233-.133a14.13 14.13 0 0 0 5.99-2.265l-.814 1.152c-.241.358-.578.698-1.007 1.057a.211.211 0 0 0-.112.132c-.445.057-.963.057-1.577.038-.141 0-.307-.02-.498-.057l-.162.057c.005.094.268.17.764.189.591.037 1.343 0 2.209-.133 2.808-.396 5.131-1.548 6.944-3.455a18.554 18.554 0 0 0 2.15-2.718c.808-1.265 1.181-2.285 1.072-3.059-.048-.472-.226-.736-.537-.83-.025-.02-.048-.02-.072-.02.024 0 .073.038.147.114.15.17.23.358.243.604.064 1.284-1.18 3.247-3.734 5.89-1.635 1.7-3.703 2.776-6.154 3.248h.024c.251-.151.703-.548 1.308-1.17.471-.473 1.02-1.266 1.695-2.38a17.683 17.683 0 0 0 2.905-2.7c.534-.623.796-1.038.786-1.246-.003-.056-.028-.075-.076-.094v-.019c-.073-.038-.169-.057-.334-.057-.919 0-1.828.661-2.73 1.964-.022.019-.594.83-1.692 2.435-1.114.812-2.072 1.435-2.876 1.85-1.655.85-3.446 1.322-5.348 1.455zm10.177-4.796.983-1.548c.552-.736 1.003-1.152 1.377-1.208.164-.02.236 0 .262.056.027.057-.216.378-.754.944a25.99 25.99 0 0 1-1.868 1.756zm19.463 3.709c-.03-.227.083-.472.338-.734a.573.573 0 0 0 .152-.105 2.813 2.813 0 0 0-.357-.035c-.683 0-1.053.49-.832 1.066.23.647.986 1.049 2.226 1.189.945.104 1.768.07 2.512-.088.246-.017.61-.087 1.106-.245 1.37-.436 2.6-1.468 3.727-3.128l.798-1.171c.014-.052.087-.122.174-.245l.074.088c.17.192.458.332.842.42.064.017.275.052.59.087.29 0 .536-.018.718-.053 1.416-.087 2.33-.524 2.768-1.293.151-.262.22-.525.209-.77-.04-.926-.8-1.52-2.306-1.8.78-.681 1.453-1.065 2-1.153.386-.052.69.053.952.315-.177-.402-.476-.63-.897-.682-.756-.087-1.708.385-2.834 1.416a18.375 18.375 0 0 0-1.019-.035c-1.2 0-2.338.157-3.412.49-2.17.646-3.446 1.642-3.871 2.97-.104.315-.129.595-.076.84.165.786.78 1.205 1.837 1.223.165 0 .69-.105.595-.193l-.577.018c-.639.017-1.009-.28-1.09-.891-.108-.822.246-1.59 1.079-2.342.685-.612 1.51-1.101 2.52-1.451a9.316 9.316 0 0 1 3.036-.507c.27 0 .54.018.812.035l-.165.157c-.545.42-1.164 1.066-1.856 1.94-.407.525-1.037 1.399-1.887 2.64a11.73 11.73 0 0 1-1.375 1.66c-1.08 1.066-2.44 1.59-4.074 1.59-.58 0-1.087-.087-1.501-.244-.568-.228-.878-.542-.936-.98zm10.325-4.09c.46-.594 1.216-1.45 2.248-2.569 1.065.227 1.637.647 1.718 1.258.12.91-.412 1.59-1.591 2.063-.453.174-.876.262-1.27.262-.6 0-.923-.105-.951-.315-.053-.402.398-.594 1.336-.542a.941.941 0 0 0 .23.018h.02c-.572-.262-1.099-.332-1.56-.227l-.18.052zm-14.188-.708c-.317-.163-.616-.253-.917-.253-.141 0-.262.018-.405.054h-.04l.689-.742a27.622 27.622 0 0 1 1.496-1.446c.736.253 1.106.615 1.09 1.103-.022.669-.463 1.248-1.344 1.718-.389.199-.755.325-1.138.343-.242.018-.443 0-.602-.036-.26-.054-.336-.18-.27-.361.11-.272.395-.398.898-.398.302 0 .462.018.522.036.02 0 .02 0 .02-.018zm-.124-2.333c-1.057.922-1.867 1.682-2.39 2.278-.25.29-.942 1.14-2.075 2.55-.567.705-1.11 1.302-1.627 1.754-1.264 1.103-2.69 1.664-4.32 1.664-.584 0-1.064-.09-1.44-.253-.516-.235-.766-.579-.751-1.03a.931.931 0 0 1 .344-.688l.269-.199c-.1-.018-.2-.036-.301-.036-.704 0-1.163.488-1.043 1.121.118.705.788 1.121 2.01 1.266a8.3 8.3 0 0 0 2.499-.109 5.03 5.03 0 0 0 1.154-.235c1.382-.416 2.786-1.519 4.193-3.309l.966-1.212c0-.018 0-.018.021-.036l.648-.723c.21.307.608.452 1.191.47 1.045.036 1.716.434 2.032 1.212.094.217.127.434.12.669-.03.904-.518 1.645-1.463 2.242-.78.488-1.716.796-2.827.922-.727.09-1.267-.018-1.62-.307a.583.583 0 0 1-.244-.524c.012-.344.203-.651.594-.923.33-.235.696-.361 1.12-.416-.137-.09-.337-.126-.599-.126-.885 0-1.689.579-1.715 1.356-.026.796.685 1.194 2.134 1.194 1.308 0 2.464-.29 3.468-.85 1.168-.633 1.8-1.52 1.897-2.622.096-1.067-.507-1.7-1.847-1.935.284-.073.528-.145.711-.217.938-.38 1.438-.886 1.52-1.555.086-.778-.419-1.32-1.516-1.592.287-.528 1.249-.873.805-.767-.334.08-1.157.355-1.546.64a14.482 14.482 0 0 0-.944-.036c-1.026 0-1.996.145-2.952.434-1.93.597-3.167 1.483-3.71 2.677-.108.253-.177.506-.165.741.017.724.467 1.103 1.372 1.121.16 0 .607-.108.529-.18h-.483c-.543 0-.817-.254-.8-.778.037-1.085.812-2.025 2.307-2.84 1.311-.704 2.61-1.048 3.898-1.048.261 0 .522.018.783.054z" transform="matrix(.77622 0 .55532 1.4265 -92.898 -97.246)" aria-label="P"/></g><g id="b" style="display:inline"><path style="fill:none;stroke:#fcef3c;stroke-width:.79375;stroke-linecap:butt;stroke-linejoin:miter;stroke-miterlimit:4;stroke-dasharray:none;stroke-opacity:1" d="M155.377 178.819c-6.876-6.415-21.644-8.726-29.24-19.2-11.126-15.34-5.798-32.205 5.034-39.732" transform="translate(-91.84 -80.6)"/><path style="fill:#fcef3c;stroke:#fcef3c;stroke-width:.79375;stroke-linecap:butt;stroke-linejoin:miter;stroke-miterlimit:4;stroke-dasharray:none;stroke-opacity:1" d="M141.997 171.143c-.224-2.25-1.614-6.497-2.81-8.787 6.684 5.5 3.903 7.72 6.854 10.823-2.27.477-3.266 1.084-6.563 1.275-2.759.027-5.127-.781-6.603-1.706.555.185 7.572-.161 9.122-1.604zm-11.228-4.281c1.259.054 3.193.301 3.343-.126-1.061-3.377-.084-6.842-.976-9.173 3.679 3.334 2.369 7.83 4.632 11.466-2.32.008-3.525.92-6.792.44-2.707-.53-4.864-1.801-6.123-3.005 1.017.018 4.117.32 5.916.398zm-6.216-5.93c1.212.347 3.035 1.038 3.28.658-.244-3.531 1.87-6.69 1.545-9.166 2.8 4.1.123 8.186 1.475 12.249-2.258-.533-3.642.071-6.707-1.157-2.509-1.148-4.956-2.973-6.412-4.325.985.254 5.088 1.246 6.82 1.741zm-4.43-8.483c1.048.701 2.571 1.918 2.92 1.632.851-3.437 2.817-6.535 3.267-8.99 2.648 5.278-.942 8.64-1.336 12.85-1.985-1.2-3.488-1.048-6.03-3.157-2.036-1.862-3.806-4.348-4.778-6.082.86.544 4.461 2.745 5.958 3.747zm-6.022-14.27c1.117 2.399 2.903 4.08 4.062 5.666.81 1.11 1.754 1.954 2.138 1.807.674-1.928 4.808-5.1 6.416-6.09-2.311 5.698-4.255 6.125-5.531 10.158-1.565-1.975-4.926-3.43-5.388-4.474-1.468-2.653-2.013-5.002-1.697-7.067zm2.946-10.145c.268 2.633 1.402 4.808 1.976 6.686.401 1.314 1.016 2.422 1.426 2.408 1.27-1.6 6.216-3.238 8.06-3.645-4.054 4.623-6.03 4.388-8.56 7.778-.83-2.379-3.527-4.856-3.62-5.994-.515-2.989-.259-5.387.718-7.233zm4.767-9.838c-.428 2.945.214 5.627.325 7.832.078 1.543.445 2.92.897 3.017 1.822-1.397 7.666-1.83 9.789-1.768-5.687 3.931-7.779 3.133-11.466 6.138-.253-2.821-2.517-6.262-2.307-7.528.256-3.4 1.192-5.945 2.762-7.69zm8.315 2.531c-1.156 3.585 4.53-.032 6.615 2.928-1.992-.51-3.336-.409-6.612 1.516-1.784 1.31-2.895-1.281-4.433.06.743-2.238-.49-2.27.48-6.096.686-2.709 2.627-5.774 4.04-7.67-.505 2.14-1.507 5.752-.936 7.9.154.58.422 1.053.846 1.362zm11.483-6.33c-1.976-.096-4.25.225-6.726.83-1.185.323-2.433 2.105-3.715 4.66 1.263.058 2.382.312 6.367-3.357 1.17-1.19 2.626-1.652 4.074-2.132z" transform="translate(-91.84 -80.6)"/></g><use xlink:href="#b" transform="matrix(-1 0 0 1 118.783 0)" width="100%" height="100%" style="display:inline"/><text xml:space="preserve" style="font-size:7.61115px;line-height:1.25;font-family:sans-serif;letter-spacing:0;word-spacing:0;display:inline;fill:#fcef3c;stroke:#fcef3c;stroke-width:.264583" x="36.281" y="62.05" transform="scale(1.07874 .927)"><tspan style="font-weight:700;font-size:7.61115px;fill:#fcef3c;stroke:#fcef3c;stroke-width:.264583" x="36.281" y="62.05">सत्यमेव जयते </tspan></text></svg>